<svg width="1440" height="640" viewBox="0 0 1440 640" fill="none" xmlns="http://www.w3.org/2000/svg">
<mask id="mask0_1603_369" style="mask-type:alpha" maskUnits="userSpaceOnUse" x="0" y="0" width="1440" height="640">
<rect width="1440" height="640" fill="white"/>
</mask>
<g mask="url(#mask0_1603_369)">
<path d="M168.872 30.7055C174.054 34.7378 178.391 39.7512 181.636 45.4597C184.88 51.1681 186.969 57.4597 187.782 63.9753C188.595 70.4908 188.116 77.1027 186.374 83.4335C184.632 89.7642 181.66 95.6898 177.628 100.872C173.595 106.054 168.582 110.391 162.874 113.636C157.165 116.88 150.873 118.969 144.358 119.782C137.842 120.595 131.23 120.117 124.9 118.375C118.569 116.632 112.643 113.66 107.461 109.628L124.32 87.9611C126.657 89.7794 129.329 91.1196 132.184 91.9052C135.039 92.6909 138.02 92.9065 140.958 92.5399C143.896 92.1732 146.734 91.2315 149.308 89.7684C151.882 88.3053 154.143 86.3495 155.961 84.0127C157.779 81.6759 159.119 79.0039 159.905 76.1492C160.691 73.2944 160.906 70.3129 160.54 67.3748C160.173 64.4368 159.231 61.5997 157.768 59.0255C156.305 56.4514 154.349 54.1907 152.012 52.3724L168.872 30.7055Z" fill="#36B2F8"/>
<path d="M1247.74 132.782C1245.12 135.395 1242.01 137.467 1238.59 138.879C1235.17 140.291 1231.51 141.016 1227.81 141.012C1224.11 141.008 1220.45 140.276 1217.03 138.856C1213.62 137.437 1210.51 135.359 1207.9 132.74C1205.29 130.121 1203.21 127.013 1201.8 123.594C1200.39 120.174 1199.66 116.51 1199.67 112.811C1199.67 109.111 1200.41 105.449 1201.82 102.032C1203.24 98.6158 1205.32 95.5123 1207.94 92.8992L1218.31 103.288C1217.05 104.54 1216.06 106.027 1215.38 107.663C1214.7 109.3 1214.35 111.054 1214.35 112.826C1214.34 114.598 1214.69 116.354 1215.37 117.992C1216.04 119.63 1217.04 121.118 1218.29 122.373C1219.54 123.627 1221.03 124.623 1222.66 125.303C1224.3 125.983 1226.05 126.334 1227.83 126.335C1229.6 126.337 1231.35 125.99 1232.99 125.314C1234.63 124.637 1236.12 123.645 1237.37 122.393L1247.74 132.782Z" fill="#36B2F8"/>
<path d="M687.486 508.159C685.655 511.609 683.163 514.664 680.151 517.151C677.139 519.638 673.666 521.507 669.932 522.651C666.198 523.796 662.274 524.194 658.386 523.823C654.498 523.451 650.721 522.317 647.271 520.486C643.821 518.655 640.766 516.162 638.279 513.15C635.792 510.138 633.923 506.666 632.779 502.932C631.634 499.198 631.236 495.274 631.608 491.386C631.979 487.498 633.113 483.721 634.944 480.271L649.083 487.776C648.238 489.369 647.714 491.113 647.543 492.909C647.371 494.704 647.555 496.516 648.084 498.24C648.612 499.965 649.475 501.568 650.624 502.959C651.772 504.35 653.183 505.501 654.776 506.347C656.369 507.192 658.113 507.716 659.909 507.887C661.704 508.059 663.516 507.875 665.24 507.347C666.965 506.818 668.568 505.955 669.959 504.807C671.35 503.658 672.501 502.247 673.347 500.654L687.486 508.159Z" fill="#36B2F8"/>
<circle cx="598.5" cy="103.5" r="19.5" fill="#F86338"/>
<circle cx="1223" cy="396" r="9" fill="#F86338"/>
<circle cx="1068" cy="603" r="5" fill="#F86338"/>
<circle cx="123.5" cy="468.5" r="4.5" fill="#F86338"/>
</g>
</svg>
