<svg width="46" height="22" viewBox="0 0 46 22" fill="none" xmlns="http://www.w3.org/2000/svg">
<path fill-rule="evenodd" clip-rule="evenodd" d="M8.23187e-06 6.00011C8.23187e-06 2.68641 2.6863 0.000111174 6.00001 0.000111174H40C43.3137 0.000111174 46 2.6864 46 6.00011V16C46 19.3137 43.3137 22 40 22H6.00001C2.6863 22 8.23187e-06 19.3137 8.23187e-06 16V6.00011Z" fill="#F6F7FB"/>
<path d="M10.3448 16.168C9.62615 16.168 8.99615 16.042 8.45482 15.79C7.91349 15.538 7.48882 15.1787 7.18082 14.712C6.88215 14.2453 6.72815 13.69 6.71882 13.046H8.28682C8.29615 13.5687 8.47815 14.012 8.83282 14.376C9.18749 14.74 9.68682 14.922 10.3308 14.922C10.9002 14.922 11.3435 14.7867 11.6608 14.516C11.9875 14.236 12.1508 13.8813 12.1508 13.452C12.1508 13.1067 12.0715 12.8267 11.9128 12.612C11.7635 12.3973 11.5535 12.22 11.2828 12.08C11.0215 11.94 10.7182 11.814 10.3728 11.702C10.0275 11.59 9.66349 11.4687 9.28082 11.338C8.52482 11.086 7.95549 10.7593 7.57282 10.358C7.19949 9.95667 7.01282 9.42933 7.01282 8.776C7.00349 8.22533 7.12949 7.74467 7.39082 7.334C7.66149 6.92333 8.03482 6.606 8.51082 6.382C8.99615 6.14867 9.56082 6.032 10.2048 6.032C10.8395 6.032 11.3948 6.14867 11.8708 6.382C12.3562 6.61533 12.7342 6.942 13.0048 7.362C13.2755 7.77267 13.4155 8.25333 13.4248 8.804H11.8568C11.8568 8.552 11.7915 8.314 11.6608 8.09C11.5302 7.85667 11.3388 7.66533 11.0868 7.516C10.8348 7.36667 10.5268 7.292 10.1628 7.292C9.69615 7.28267 9.30882 7.39933 9.00082 7.642C8.70215 7.88467 8.55282 8.22067 8.55282 8.65C8.55282 9.03267 8.66482 9.32667 8.88882 9.532C9.11282 9.73733 9.42082 9.91 9.81282 10.05C10.2048 10.1807 10.6528 10.3347 11.1568 10.512C11.6422 10.6707 12.0762 10.862 12.4588 11.086C12.8415 11.31 13.1448 11.604 13.3688 11.968C13.6022 12.332 13.7188 12.794 13.7188 13.354C13.7188 13.8487 13.5928 14.3107 13.3408 14.74C13.0888 15.16 12.7108 15.5053 12.2068 15.776C11.7028 16.0373 11.0822 16.168 10.3448 16.168ZM14.8233 16L18.4353 6.2H20.0593L23.6433 16H22.0753L21.2353 13.606H17.2313L16.3913 16H14.8233ZM17.6513 12.43H20.8153L19.2333 7.964L17.6513 12.43ZM25.1219 16V6.2H26.6059V14.824H31.0579V16H25.1219ZM32.7671 16V6.2H38.9971V7.404H34.2511V10.456H38.5771V11.632H34.2511V14.796H38.9971V16H32.7671Z" fill="#F86338"/>
</svg>
